<svg xmlns="http://www.w3.org/2000/svg" width="1200" height="900" viewBox="0 0 1200 900" role="img" aria-labelledby="title desc">
  <title id="title">Nolan Showcase Theme X2 screenshot</title>
  <desc id="desc">Blue developer portfolio homepage preview with navigation, hero copy, dashboard panel, service cards, and metrics.</desc>
  <rect width="1200" height="900" fill="#071225"/>
  <path d="M0 0h1200v560H0z" fill="#0b2b72"/>
  <path d="M126 120h948v660H126z" fill="#f7fbff"/>
  <rect x="126" y="120" width="948" height="86" fill="#ffffff"/>
  <circle cx="184" cy="163" r="24" fill="#0a63ff"/>
  <rect x="230" y="150" width="178" height="26" rx="13" fill="#0f1e36"/>
  <rect x="720" y="151" width="76" height="18" rx="9" fill="#35527d"/>
  <rect x="824" y="151" width="82" height="18" rx="9" fill="#35527d"/>
  <rect x="934" y="151" width="76" height="18" rx="9" fill="#0a63ff"/>
  <rect x="178" y="274" width="380" height="34" rx="17" fill="#8bd6ff"/>
  <rect x="178" y="330" width="448" height="58" rx="12" fill="#071225"/>
  <rect x="178" y="406" width="360" height="24" rx="12" fill="#466384"/>
  <rect x="178" y="472" width="154" height="46" rx="23" fill="#0a63ff"/>
  <rect x="352" y="472" width="154" height="46" rx="23" fill="#d7e8ff"/>
  <rect x="646" y="270" width="330" height="288" rx="28" fill="#0e2347"/>
  <rect x="684" y="324" width="256" height="48" rx="12" fill="#163d78"/>
  <rect x="684" y="404" width="72" height="72" rx="14" fill="#0a63ff"/>
  <rect x="780" y="404" width="72" height="72" rx="14" fill="#19c2a3"/>
  <rect x="876" y="404" width="64" height="72" rx="14" fill="#8bd6ff"/>
  <rect x="178" y="624" width="256" height="96" rx="18" fill="#d7e8ff"/>
  <rect x="472" y="624" width="256" height="96" rx="18" fill="#d7e8ff"/>
  <rect x="766" y="624" width="208" height="96" rx="18" fill="#d7e8ff"/>
</svg>
