<svg xmlns="http://www.w3.org/2000/svg" viewBox="0 0 1200 900" width="1200" height="900" role="img" aria-label="Photographer placeholder">
  <defs>
    <linearGradient id="bg" x1="0" y1="0" x2="1" y2="1">
      <stop offset="0" stop-color="#080806"/>
      <stop offset="0.55" stop-color="#181714"/>
      <stop offset="1" stop-color="#11100d"/>
    </linearGradient>
    <radialGradient id="glow" cx="35%" cy="30%" r="70%">
      <stop offset="0" stop-color="#c8a96a" stop-opacity="0.22"/>
      <stop offset="0.6" stop-color="#b66f4f" stop-opacity="0.10"/>
      <stop offset="1" stop-color="#080806" stop-opacity="0"/>
    </radialGradient>
    <filter id="grain" x="-20%" y="-20%" width="140%" height="140%">
      <feTurbulence type="fractalNoise" baseFrequency="0.86" numOctaves="2" stitchTiles="stitch"/>
      <feColorMatrix type="matrix" values="
        1 0 0 0 0
        0 1 0 0 0
        0 0 1 0 0
        0 0 0 0.10 0"/>
    </filter>
  </defs>
  <rect width="1200" height="900" fill="url(#bg)"/>
  <rect width="1200" height="900" fill="url(#glow)"/>

  <!-- Camera body -->
  <g transform="translate(0 0)">
    <rect x="300" y="360" width="600" height="320" rx="60" fill="rgba(36,33,28,0.58)" stroke="#f7f1e7" stroke-opacity="0.10" stroke-width="2"/>
    <rect x="420" y="300" width="360" height="120" rx="44" fill="rgba(17,16,13,0.66)" stroke="#f7f1e7" stroke-opacity="0.10"/>
    <circle cx="600" cy="520" r="140" fill="rgba(8,8,6,0.62)" stroke="#c8a96a" stroke-opacity="0.18" stroke-width="10"/>
    <circle cx="600" cy="520" r="92" fill="none" stroke="#f7f1e7" stroke-opacity="0.12" stroke-width="4" stroke-dasharray="3 9"/>
    <circle cx="812" cy="432" r="22" fill="rgba(200,169,106,0.18)" stroke="#c8a96a" stroke-opacity="0.24"/>
  </g>

  <!-- Photographer silhouette -->
  <g fill="#11100d" stroke="#f7f1e7" stroke-opacity="0.10">
    <path d="M260 330c-44 0-80 36-80 80 0 28 14 54 36 66-18 16-30 40-30 66v70h148v-70c0-26-12-50-30-66 22-12 36-38 36-66 0-44-36-80-80-80z"/>
  </g>

  <!-- Frame -->
  <rect x="96" y="92" width="1008" height="716" rx="40" fill="none" stroke="#f7f1e7" stroke-opacity="0.10"/>
  <rect width="1200" height="900" filter="url(#grain)" opacity="0.62"/>
  <text x="118" y="784" fill="#f7f1e7" fill-opacity="0.42" font-family="ui-monospace, SFMono-Regular, Menlo, Monaco, Consolas, 'Liberation Mono', 'Courier New', monospace" font-size="18" letter-spacing="3">ABOUT • PHOTOGRAPHER</text>
</svg>

