<svg xmlns="http://www.w3.org/2000/svg" viewBox="0 0 1200 900" width="1200" height="900" role="img" aria-label="Product detail placeholder">
  <defs>
    <linearGradient id="bg" x1="0" y1="0" x2="1" y2="1">
      <stop offset="0" stop-color="#080806"/>
      <stop offset="0.6" stop-color="#181714"/>
      <stop offset="1" stop-color="#0d0c0a"/>
    </linearGradient>
    <radialGradient id="glow" cx="65%" cy="35%" r="65%">
      <stop offset="0" stop-color="#c8a96a" stop-opacity="0.22"/>
      <stop offset="0.55" stop-color="#b66f4f" stop-opacity="0.10"/>
      <stop offset="1" stop-color="#080806" stop-opacity="0"/>
    </radialGradient>
    <linearGradient id="metal" x1="0" y1="0" x2="1" y2="0">
      <stop offset="0" stop-color="#f7f1e7" stop-opacity="0.10"/>
      <stop offset="0.5" stop-color="#f7f1e7" stop-opacity="0.26"/>
      <stop offset="1" stop-color="#f7f1e7" stop-opacity="0.08"/>
    </linearGradient>
    <filter id="grain" x="-20%" y="-20%" width="140%" height="140%">
      <feTurbulence type="fractalNoise" baseFrequency="0.85" numOctaves="2" stitchTiles="stitch"/>
      <feColorMatrix type="matrix" values="
        1 0 0 0 0
        0 1 0 0 0
        0 0 1 0 0
        0 0 0 0.10 0"/>
    </filter>
  </defs>
  <rect width="1200" height="900" fill="url(#bg)"/>
  <rect width="1200" height="900" fill="url(#glow)"/>

  <!-- Macro rings -->
  <g fill="none">
    <circle cx="610" cy="460" r="260" stroke="#c8a96a" stroke-opacity="0.16" stroke-width="10"/>
    <circle cx="610" cy="460" r="210" stroke="#f7f1e7" stroke-opacity="0.10" stroke-width="4" stroke-dasharray="2 10"/>
    <circle cx="610" cy="460" r="156" stroke="#b66f4f" stroke-opacity="0.14" stroke-width="8"/>
    <circle cx="610" cy="460" r="110" stroke="#f7f1e7" stroke-opacity="0.12" stroke-width="4"/>
  </g>

  <!-- Product silhouette -->
  <g transform="translate(0 0)">
    <path d="M450 640c0-100 40-160 160-160s160 60 160 160v40H450z" fill="#11100d" stroke="#f7f1e7" stroke-opacity="0.10"/>
    <rect x="520" y="300" width="180" height="210" rx="44" fill="rgba(36,33,28,0.62)" stroke="#f7f1e7" stroke-opacity="0.10"/>
    <rect x="548" y="330" width="124" height="152" rx="34" fill="rgba(8,8,6,0.62)" stroke="#c8a96a" stroke-opacity="0.16"/>
    <path d="M520 372h180" stroke="url(#metal)" stroke-width="18" stroke-linecap="round"/>
  </g>

  <rect x="96" y="92" width="1008" height="716" rx="40" fill="none" stroke="#f7f1e7" stroke-opacity="0.10"/>
  <rect width="1200" height="900" filter="url(#grain)" opacity="0.64"/>
  <text x="118" y="784" fill="#f7f1e7" fill-opacity="0.42" font-family="ui-monospace, SFMono-Regular, Menlo, Monaco, Consolas, 'Liberation Mono', 'Courier New', monospace" font-size="18" letter-spacing="3">PRODUCT • DETAIL</text>
</svg>

