<svg xmlns="http://www.w3.org/2000/svg" viewBox="0 0 1200 900" width="1200" height="900" role="img" aria-label="Event coverage placeholder">
  <defs>
    <linearGradient id="bg" x1="0" y1="0" x2="1" y2="1">
      <stop offset="0" stop-color="#080806"/>
      <stop offset="0.55" stop-color="#11100d"/>
      <stop offset="1" stop-color="#0d0c0a"/>
    </linearGradient>
    <radialGradient id="glow" cx="50%" cy="30%" r="70%">
      <stop offset="0" stop-color="#b66f4f" stop-opacity="0.18"/>
      <stop offset="0.55" stop-color="#c8a96a" stop-opacity="0.10"/>
      <stop offset="1" stop-color="#080806" stop-opacity="0"/>
    </radialGradient>
    <filter id="grain" x="-20%" y="-20%" width="140%" height="140%">
      <feTurbulence type="fractalNoise" baseFrequency="0.9" numOctaves="2" stitchTiles="stitch"/>
      <feColorMatrix type="matrix" values="
        1 0 0 0 0
        0 1 0 0 0
        0 0 1 0 0
        0 0 0 0.10 0"/>
    </filter>
    <filter id="soft" x="-20%" y="-20%" width="140%" height="140%">
      <feGaussianBlur stdDeviation="10"/>
    </filter>
  </defs>
  <rect width="1200" height="900" fill="url(#bg)"/>
  <rect width="1200" height="900" fill="url(#glow)"/>

  <!-- Stage light beams -->
  <g opacity="0.26" filter="url(#soft)">
    <path d="M220 120l220 760H0z" fill="#c8a96a"/>
    <path d="M980 120l220 760H760z" fill="#b66f4f"/>
    <path d="M600 80l260 820H340z" fill="#8f7a61"/>
  </g>

  <!-- Crowd dots -->
  <g fill="#f7f1e7" fill-opacity="0.10">
    <circle cx="210" cy="720" r="10"/><circle cx="260" cy="744" r="8"/><circle cx="320" cy="716" r="9"/>
    <circle cx="420" cy="750" r="11"/><circle cx="460" cy="720" r="8"/><circle cx="520" cy="742" r="9"/>
    <circle cx="640" cy="730" r="10"/><circle cx="700" cy="754" r="8"/><circle cx="760" cy="722" r="9"/>
    <circle cx="860" cy="750" r="11"/><circle cx="910" cy="720" r="8"/><circle cx="980" cy="744" r="9"/>
  </g>

  <!-- Camera frame -->
  <rect x="240" y="210" width="720" height="480" rx="44" fill="rgba(36,33,28,0.54)" stroke="#f7f1e7" stroke-opacity="0.10"/>
  <rect x="280" y="250" width="640" height="400" rx="36" fill="rgba(8,8,6,0.64)" stroke="#f7f1e7" stroke-opacity="0.08"/>
  <circle cx="600" cy="450" r="132" fill="none" stroke="#c8a96a" stroke-opacity="0.20" stroke-width="6"/>
  <circle cx="600" cy="450" r="88" fill="none" stroke="#f7f1e7" stroke-opacity="0.12" stroke-width="3" stroke-dasharray="3 8"/>

  <rect x="96" y="92" width="1008" height="716" rx="40" fill="none" stroke="#f7f1e7" stroke-opacity="0.10"/>
  <rect width="1200" height="900" filter="url(#grain)" opacity="0.62"/>
  <text x="118" y="784" fill="#f7f1e7" fill-opacity="0.42" font-family="ui-monospace, SFMono-Regular, Menlo, Monaco, Consolas, 'Liberation Mono', 'Courier New', monospace" font-size="18" letter-spacing="3">EVENT • COVERAGE</text>
</svg>

