<svg xmlns="http://www.w3.org/2000/svg" viewBox="0 0 1200 900" width="1200" height="900" role="img" aria-label="Editorial portrait placeholder">
  <defs>
    <linearGradient id="bg" x1="0" y1="0" x2="1" y2="1">
      <stop offset="0" stop-color="#080806"/>
      <stop offset="0.55" stop-color="#181714"/>
      <stop offset="1" stop-color="#0d0c0a"/>
    </linearGradient>
    <radialGradient id="glow" cx="30%" cy="25%" r="70%">
      <stop offset="0" stop-color="#c8a96a" stop-opacity="0.28"/>
      <stop offset="0.55" stop-color="#b66f4f" stop-opacity="0.14"/>
      <stop offset="1" stop-color="#080806" stop-opacity="0"/>
    </radialGradient>
    <linearGradient id="leak" x1="0" y1="1" x2="1" y2="0">
      <stop offset="0" stop-color="#b66f4f" stop-opacity="0.26"/>
      <stop offset="0.4" stop-color="#c8a96a" stop-opacity="0.06"/>
      <stop offset="1" stop-color="#f7f1e7" stop-opacity="0"/>
    </linearGradient>
    <filter id="grain" x="-20%" y="-20%" width="140%" height="140%">
      <feTurbulence type="fractalNoise" baseFrequency="0.8" numOctaves="3" stitchTiles="stitch"/>
      <feColorMatrix type="matrix" values="
        1 0 0 0 0
        0 1 0 0 0
        0 0 1 0 0
        0 0 0 0.12 0"/>
    </filter>
    <filter id="soft" x="-20%" y="-20%" width="140%" height="140%">
      <feGaussianBlur stdDeviation="8"/>
    </filter>
    <mask id="vignette">
      <rect width="1200" height="900" fill="white"/>
      <radialGradient id="vig" cx="50%" cy="50%" r="70%">
        <stop offset="0" stop-color="white"/>
        <stop offset="0.7" stop-color="white"/>
        <stop offset="1" stop-color="black"/>
      </radialGradient>
      <rect width="1200" height="900" fill="url(#vig)"/>
    </mask>
  </defs>
  <rect width="1200" height="900" fill="url(#bg)"/>
  <rect width="1200" height="900" fill="url(#glow)"/>
  <path d="M0 700C220 610 420 640 600 720s370 130 600 80v120H0z" fill="#11100d"/>
  <g opacity="0.9" mask="url(#vignette)">
    <rect x="92" y="86" width="1016" height="728" rx="42" fill="none" stroke="#f7f1e7" stroke-opacity="0.10"/>
    <rect x="124" y="118" width="952" height="664" rx="36" fill="none" stroke="#f7f1e7" stroke-opacity="0.06"/>
  </g>

  <!-- Abstract silhouette -->
  <g transform="translate(0 10)">
    <path d="M600 250c-92 0-168 76-168 168 0 54 24 106 66 138-26 28-42 66-42 108v60h288v-60c0-42-16-80-42-108 42-32 66-84 66-138 0-92-76-168-168-168z"
      fill="#0d0c0a" stroke="#f7f1e7" stroke-opacity="0.10"/>
    <path d="M600 295c-64 0-116 52-116 116 0 40 18 78 50 100 12 8 18 22 14 36-6 20-10 42-10 66v34h124v-34c0-24-4-46-10-66-4-14 2-28 14-36 32-22 50-60 50-100 0-64-52-116-116-116z"
      fill="#181714"/>
    <path d="M462 642c56 48 266 48 276 0v-14c0-36-10-68-26-96-66 38-158 38-224 0-16 28-26 60-26 96z"
      fill="#11100d"/>
  </g>

  <!-- Aperture ring -->
  <g opacity="0.9">
    <circle cx="600" cy="440" r="248" fill="none" stroke="#c8a96a" stroke-opacity="0.16" stroke-width="2"/>
    <circle cx="600" cy="440" r="214" fill="none" stroke="#f7f1e7" stroke-opacity="0.10" stroke-width="1.5" stroke-dasharray="3 9"/>
    <circle cx="600" cy="440" r="148" fill="none" stroke="#b66f4f" stroke-opacity="0.14" stroke-width="2"/>
    <g opacity="0.22" filter="url(#soft)">
      <circle cx="600" cy="440" r="188" fill="none" stroke="#c8a96a" stroke-width="18"/>
    </g>
  </g>

  <!-- Viewfinder corners -->
  <g stroke="#f7f1e7" stroke-opacity="0.18" stroke-width="3" fill="none">
    <path d="M146 210v-62h62"/>
    <path d="M1054 210v-62h-62"/>
    <path d="M146 690v62h62"/>
    <path d="M1054 690v62h-62"/>
  </g>

  <!-- Light leak -->
  <path d="M-40 820C260 680 340 720 520 760s410 10 760-120v260H-40z" fill="url(#leak)"/>
  <rect width="1200" height="900" filter="url(#grain)" opacity="0.7"/>
  <text x="120" y="790" fill="#f7f1e7" fill-opacity="0.42" font-family="ui-monospace, SFMono-Regular, Menlo, Monaco, Consolas, 'Liberation Mono', 'Courier New', monospace" font-size="18" letter-spacing="3">MNY PHOTO • EDITORIAL SET</text>
</svg>

