<svg xmlns="http://www.w3.org/2000/svg" viewBox="0 0 1200 900" width="1200" height="900" role="img" aria-label="Contact sheet placeholder">
  <defs>
    <linearGradient id="bg" x1="0" y1="1" x2="1" y2="0">
      <stop offset="0" stop-color="#080806"/>
      <stop offset="0.6" stop-color="#11100d"/>
      <stop offset="1" stop-color="#24211c"/>
    </linearGradient>
    <radialGradient id="glow" cx="30%" cy="25%" r="70%">
      <stop offset="0" stop-color="#c8a96a" stop-opacity="0.18"/>
      <stop offset="0.6" stop-color="#b66f4f" stop-opacity="0.08"/>
      <stop offset="1" stop-color="#080806" stop-opacity="0"/>
    </radialGradient>
    <filter id="grain" x="-20%" y="-20%" width="140%" height="140%">
      <feTurbulence type="fractalNoise" baseFrequency="0.92" numOctaves="2" stitchTiles="stitch"/>
      <feColorMatrix type="matrix" values="
        1 0 0 0 0
        0 1 0 0 0
        0 0 1 0 0
        0 0 0 0.10 0"/>
    </filter>
  </defs>
  <rect width="1200" height="900" fill="url(#bg)"/>
  <rect width="1200" height="900" fill="url(#glow)"/>

  <!-- Contact sheet blocks -->
  <g>
    <rect x="150" y="150" width="900" height="600" rx="44" fill="rgba(8,8,6,0.56)" stroke="#f7f1e7" stroke-opacity="0.10"/>
    <g fill="rgba(247,241,231,0.06)" stroke="#f7f1e7" stroke-opacity="0.08">
      <rect x="200" y="210" width="240" height="160" rx="24"/>
      <rect x="480" y="210" width="240" height="160" rx="24"/>
      <rect x="760" y="210" width="240" height="160" rx="24"/>
      <rect x="200" y="400" width="240" height="160" rx="24"/>
      <rect x="480" y="400" width="240" height="160" rx="24"/>
      <rect x="760" y="400" width="240" height="160" rx="24"/>
      <rect x="200" y="590" width="240" height="110" rx="24"/>
      <rect x="480" y="590" width="520" height="110" rx="24"/>
    </g>
  </g>

  <!-- Marker strokes -->
  <g stroke="#c8a96a" stroke-opacity="0.22" stroke-width="6" fill="none" stroke-linecap="round">
    <path d="M220 250c36-20 78-20 110 0"/>
    <path d="M520 460c40-18 84-18 118 0"/>
    <path d="M800 635c60-22 130-20 190 8"/>
  </g>

  <rect x="96" y="92" width="1008" height="716" rx="40" fill="none" stroke="#f7f1e7" stroke-opacity="0.10"/>
  <rect width="1200" height="900" filter="url(#grain)" opacity="0.62"/>
  <text x="118" y="784" fill="#f7f1e7" fill-opacity="0.42" font-family="ui-monospace, SFMono-Regular, Menlo, Monaco, Consolas, 'Liberation Mono', 'Courier New', monospace" font-size="18" letter-spacing="3">PROCESS • CONTACT SHEET</text>
</svg>

