<svg xmlns="http://www.w3.org/2000/svg" viewBox="0 0 1200 900" width="1200" height="900" role="img" aria-label="Couple session placeholder">
  <defs>
    <linearGradient id="bg" x1="0" y1="1" x2="1" y2="0">
      <stop offset="0" stop-color="#080806"/>
      <stop offset="0.55" stop-color="#11100d"/>
      <stop offset="1" stop-color="#181714"/>
    </linearGradient>
    <radialGradient id="glow" cx="30%" cy="25%" r="70%">
      <stop offset="0" stop-color="#b66f4f" stop-opacity="0.18"/>
      <stop offset="0.6" stop-color="#c8a96a" stop-opacity="0.10"/>
      <stop offset="1" stop-color="#080806" stop-opacity="0"/>
    </radialGradient>
    <filter id="grain" x="-20%" y="-20%" width="140%" height="140%">
      <feTurbulence type="fractalNoise" baseFrequency="0.86" numOctaves="2" stitchTiles="stitch"/>
      <feColorMatrix type="matrix" values="
        1 0 0 0 0
        0 1 0 0 0
        0 0 1 0 0
        0 0 0 0.10 0"/>
    </filter>
  </defs>
  <rect width="1200" height="900" fill="url(#bg)"/>
  <rect width="1200" height="900" fill="url(#glow)"/>

  <!-- Two silhouettes -->
  <g fill="#11100d" stroke="#f7f1e7" stroke-opacity="0.10">
    <path d="M520 320c-56 0-102 46-102 102 0 34 18 66 46 84-18 20-30 46-30 74v66h172v-66c0-28-12-54-30-74 28-18 46-50 46-84 0-56-46-102-102-102z"/>
    <path d="M700 330c-52 0-94 42-94 94 0 32 16 60 40 78-16 18-26 42-26 68v70h160v-70c0-26-10-50-26-68 24-18 40-46 40-78 0-52-42-94-94-94z"/>
  </g>

  <!-- Holding line -->
  <path d="M520 560c40 24 80 24 120 0 24-14 48-18 72-12" fill="none" stroke="#c8a96a" stroke-opacity="0.22" stroke-width="6" stroke-linecap="round"/>

  <!-- Frame -->
  <rect x="96" y="92" width="1008" height="716" rx="40" fill="none" stroke="#f7f1e7" stroke-opacity="0.10"/>
  <rect x="136" y="132" width="928" height="636" rx="34" fill="none" stroke="#f7f1e7" stroke-opacity="0.06"/>

  <rect width="1200" height="900" filter="url(#grain)" opacity="0.62"/>
  <text x="118" y="784" fill="#f7f1e7" fill-opacity="0.42" font-family="ui-monospace, SFMono-Regular, Menlo, Monaco, Consolas, 'Liberation Mono', 'Courier New', monospace" font-size="18" letter-spacing="3">COUPLE • SESSION</text>
</svg>

