<svg xmlns="http://www.w3.org/2000/svg" viewBox="0 0 1200 900" width="1200" height="900" role="img" aria-label="Family lifestyle placeholder">
  <defs>
    <linearGradient id="bg" x1="0" y1="1" x2="1" y2="0">
      <stop offset="0" stop-color="#080806"/>
      <stop offset="0.6" stop-color="#181714"/>
      <stop offset="1" stop-color="#11100d"/>
    </linearGradient>
    <radialGradient id="glow" cx="35%" cy="35%" r="70%">
      <stop offset="0" stop-color="#b99558" stop-opacity="0.20"/>
      <stop offset="0.6" stop-color="#67624f" stop-opacity="0.12"/>
      <stop offset="1" stop-color="#080806" stop-opacity="0"/>
    </radialGradient>
    <filter id="grain" x="-20%" y="-20%" width="140%" height="140%">
      <feTurbulence type="fractalNoise" baseFrequency="0.86" numOctaves="2" stitchTiles="stitch"/>
      <feColorMatrix type="matrix" values="
        1 0 0 0 0
        0 1 0 0 0
        0 0 1 0 0
        0 0 0 0.10 0"/>
    </filter>
  </defs>
  <rect width="1200" height="900" fill="url(#bg)"/>
  <rect width="1200" height="900" fill="url(#glow)"/>

  <!-- Warm “window light” -->
  <g opacity="0.26">
    <rect x="120" y="160" width="420" height="520" rx="44" fill="#c8a96a"/>
    <path d="M120 320h420M120 480h420" stroke="#080806" stroke-opacity="0.34" stroke-width="6"/>
    <path d="M260 160v520M400 160v520" stroke="#080806" stroke-opacity="0.26" stroke-width="6"/>
  </g>

  <!-- Family silhouettes -->
  <g fill="#11100d" stroke="#f7f1e7" stroke-opacity="0.10">
    <path d="M720 320c-54 0-98 44-98 98 0 34 18 66 44 84-18 20-30 46-30 74v66h168v-66c0-28-12-54-30-74 26-18 44-50 44-84 0-54-44-98-98-98z"/>
    <path d="M910 360c-44 0-80 36-80 80 0 26 14 54 36 66-14 16-22 36-22 58v62h132v-62c0-22-8-42-22-58 22-12 36-40 36-66 0-44-36-80-80-80z"/>
    <path d="M560 410c-40 0-72 32-72 72 0 26 14 50 32 60-12 14-18 30-18 50v44h116v-44c0-20-6-36-18-50 18-10 32-34 32-60 0-40-32-72-72-72z"/>
  </g>

  <!-- Editorial frame -->
  <rect x="96" y="92" width="1008" height="716" rx="40" fill="none" stroke="#f7f1e7" stroke-opacity="0.10"/>
  <rect x="136" y="132" width="928" height="636" rx="34" fill="none" stroke="#f7f1e7" stroke-opacity="0.06"/>

  <rect width="1200" height="900" filter="url(#grain)" opacity="0.62"/>
  <text x="118" y="784" fill="#f7f1e7" fill-opacity="0.42" font-family="ui-monospace, SFMono-Regular, Menlo, Monaco, Consolas, 'Liberation Mono', 'Courier New', monospace" font-size="18" letter-spacing="3">FAMILY • LIFESTYLE</text>
</svg>

