<svg xmlns="http://www.w3.org/2000/svg" viewBox="0 0 1200 900" width="1200" height="900" role="img" aria-label="Black and white portrait placeholder">
  <defs>
    <linearGradient id="bg" x1="0" y1="0" x2="1" y2="1">
      <stop offset="0" stop-color="#080806"/>
      <stop offset="0.55" stop-color="#11100d"/>
      <stop offset="1" stop-color="#24211c"/>
    </linearGradient>
    <radialGradient id="glow" cx="45%" cy="30%" r="70%">
      <stop offset="0" stop-color="#f7f1e7" stop-opacity="0.14"/>
      <stop offset="0.6" stop-color="#f3eadc" stop-opacity="0.06"/>
      <stop offset="1" stop-color="#080806" stop-opacity="0"/>
    </radialGradient>
    <filter id="grain" x="-20%" y="-20%" width="140%" height="140%">
      <feTurbulence type="fractalNoise" baseFrequency="0.92" numOctaves="2" stitchTiles="stitch"/>
      <feColorMatrix type="matrix" values="
        1 0 0 0 0
        0 1 0 0 0
        0 0 1 0 0
        0 0 0 0.12 0"/>
    </filter>
  </defs>
  <rect width="1200" height="900" fill="url(#bg)"/>
  <rect width="1200" height="900" fill="url(#glow)"/>

  <!-- Monochrome portrait block -->
  <g>
    <rect x="260" y="170" width="680" height="560" rx="54" fill="rgba(8,8,6,0.62)" stroke="#f7f1e7" stroke-opacity="0.10"/>
    <path d="M600 280c-84 0-152 68-152 152 0 52 28 102 72 128-26 28-42 66-42 108v26h244v-26c0-42-16-80-42-108 44-26 72-76 72-128 0-84-68-152-152-152z"
      fill="#11100d"/>
    <path d="M510 428c10-40 46-70 90-70s80 30 90 70" fill="none" stroke="#f7f1e7" stroke-opacity="0.12" stroke-width="5" stroke-linecap="round"/>
    <path d="M540 490c20 18 40 26 60 26s40-8 60-26" fill="none" stroke="#f7f1e7" stroke-opacity="0.14" stroke-width="5" stroke-linecap="round"/>
  </g>

  <!-- Frame + corner marks -->
  <rect x="96" y="92" width="1008" height="716" rx="40" fill="none" stroke="#f7f1e7" stroke-opacity="0.10"/>
  <g stroke="#f7f1e7" stroke-opacity="0.16" stroke-width="3" fill="none">
    <path d="M160 220v-72h72"/>
    <path d="M1040 220v-72h-72"/>
    <path d="M160 680v72h72"/>
    <path d="M1040 680v72h-72"/>
  </g>

  <rect width="1200" height="900" filter="url(#grain)" opacity="0.72"/>
  <text x="118" y="784" fill="#f7f1e7" fill-opacity="0.42" font-family="ui-monospace, SFMono-Regular, Menlo, Monaco, Consolas, 'Liberation Mono', 'Courier New', monospace" font-size="18" letter-spacing="3">B+W • PORTRAIT</text>
</svg>

