<svg xmlns="http://www.w3.org/2000/svg" viewBox="0 0 1200 900" width="1200" height="900" role="img" aria-label="Wedding moment placeholder">
  <defs>
    <linearGradient id="bg" x1="0" y1="0" x2="1" y2="1">
      <stop offset="0" stop-color="#0d0c0a"/>
      <stop offset="0.6" stop-color="#181714"/>
      <stop offset="1" stop-color="#080806"/>
    </linearGradient>
    <radialGradient id="glow" cx="25%" cy="30%" r="70%">
      <stop offset="0" stop-color="#c8a96a" stop-opacity="0.25"/>
      <stop offset="0.65" stop-color="#b66f4f" stop-opacity="0.10"/>
      <stop offset="1" stop-color="#080806" stop-opacity="0"/>
    </radialGradient>
    <filter id="grain" x="-20%" y="-20%" width="140%" height="140%">
      <feTurbulence type="fractalNoise" baseFrequency="0.85" numOctaves="2" stitchTiles="stitch"/>
      <feColorMatrix type="matrix" values="
        1 0 0 0 0
        0 1 0 0 0
        0 0 1 0 0
        0 0 0 0.10 0"/>
    </filter>
  </defs>
  <rect width="1200" height="900" fill="url(#bg)"/>
  <rect width="1200" height="900" fill="url(#glow)"/>

  <!-- Soft “veil” sweep -->
  <path d="M-60 640c240-120 390-70 560 30s420 150 760 40v250H-60z" fill="#11100d"/>
  <path d="M-60 620c240-150 430-120 600-30s360 140 720 40" fill="none" stroke="#f7f1e7" stroke-opacity="0.10" stroke-width="4"/>

  <!-- Interlocking rings -->
  <g fill="none" stroke-width="10" opacity="0.78">
    <circle cx="520" cy="450" r="160" stroke="#c8a96a" stroke-opacity="0.42"/>
    <circle cx="680" cy="450" r="160" stroke="#b66f4f" stroke-opacity="0.36"/>
    <path d="M560 370c40-30 92-45 144-40" stroke="#f7f1e7" stroke-opacity="0.12" stroke-width="4"/>
  </g>

  <!-- Editorial frame -->
  <rect x="96" y="92" width="1008" height="716" rx="40" fill="none" stroke="#f7f1e7" stroke-opacity="0.10"/>
  <rect x="136" y="132" width="928" height="636" rx="34" fill="none" stroke="#f7f1e7" stroke-opacity="0.06"/>

  <g stroke="#f7f1e7" stroke-opacity="0.16" stroke-width="3" fill="none">
    <path d="M158 210v-62h62"/>
    <path d="M1042 210v-62h-62"/>
    <path d="M158 690v62h62"/>
    <path d="M1042 690v62h-62"/>
  </g>

  <rect width="1200" height="900" filter="url(#grain)" opacity="0.65"/>
  <text x="118" y="784" fill="#f7f1e7" fill-opacity="0.42" font-family="ui-monospace, SFMono-Regular, Menlo, Monaco, Consolas, 'Liberation Mono', 'Courier New', monospace" font-size="18" letter-spacing="3">WEDDING • MOMENT</text>
</svg>

